<?xml version="1.0" encoding="utf-8"?>
<!-- Generator: Adobe Illustrator 27.5.0, SVG Export Plug-In . SVG Version: 6.00 Build 0)  -->
<svg version="1.1" id="Layer_1" xmlns="http://www.w3.org/2000/svg" xmlns:xlink="http://www.w3.org/1999/xlink" x="0px" y="0px"
	 viewBox="0 0 500 500" style="enable-background:new 0 0 500 500;" xml:space="preserve">
<rect style="fill:#FFFFFF;" width="500" height="500"/>
<g>
	<path d="M152.126,235.725c-2.426,0.006-23.52-87.448-17.49-110.968c4.47-17.433,10.856-31.059,23.219-39.804
		c4.526-3.201-6.634-1.206-7.539-3.015c-0.905-1.809,12.79-6.771,25.933-21.108c16.585-18.093,71.767-20.203,93.479-14.173
		c20.647,5.735,60.282,10.055,79.004,40.105c35.884,57.595,6.634,144.138,3.619,144.741c-1.646,0.329-0.638-17.67-1.637-37.57
		c-0.831-16.56-3.62-34.61-5.225-42.898c-6.574-33.955-46.309-34.505-56.462-23.264c-8.443,9.348-77.798,27.742-81.417,26.536
		c-3.619-1.206-12.363-15.379-13.871-16.283c-1.508-0.904-4.301,6.349-12.141,3.937c-7.84-2.412-2.936-14.491-14.395-6.952
		c-11.458,7.538-15.419,43.561-15.303,54.524C151.992,198.237,154.552,235.719,152.126,235.725z"/>
	<path d="M347.139,268.455c-1.515-0.784-4.675,34.373-17.102,55.623c-5.035,8.61-11.237,17.097-17.604,24.657
		c-1.724-6.303-5.453-13.168-11.734-18.684c-8.334-7.318-27.337-19.441-40.423-18.974c-3.433,0.123-3.607,8.525-10.231,7.974
		c-4.808-0.399-5.067-7.852-8.5-7.974c-12.859-0.46-42.439,14.172-50.199,32.708c-3.149-0.165-6.548-0.833-9.669-3.725
		c-24.727-22.917-19.6-64.832-29.25-72.974c-3.594-3.032-3.933,30.094-0.301,74.482c0.378,4.616-5.003,12.867-3.317,15.077
		c4.725,6.192,18.394,34.376,28.948,64.53c8.277,23.65,43.091,28.216,49.488,29.319c17.49,3.016,18.66,9.278,49.719,3.549
		c31.059-5.729,74.482-84.432,75.688-98.906C353.859,340.663,355.884,272.978,347.139,268.455z M278.172,376.245
		c-1.466-0.698-8.443-7.538-10.554-20.203c-0.554-3.326-22.616-6.489-22.616-0.301c0,7.237-10.496,36.577-15.68,35.281
		c-8.444-2.111,1.521-9.164-3.317-15.379c-7.453-9.573-20.465-21.683-23.461-27.594c5.582-5.845,29.45-18.901,34.877-17.997
		c4.825,0.804,11.413,4.048,16.002,4.592c12.347-1.464,9.865-13.141,42.602,10.532c4.226,3.056,7.34,7.366,9.533,11.306
		C293.362,369.497,281.878,378.01,278.172,376.245z"/>
</g>
</svg>
